<svg width="71" height="65" viewBox="0 0 71 65" fill="none" xmlns="http://www.w3.org/2000/svg">
<path fill-rule="evenodd" clip-rule="evenodd" d="M13.0707 28.7126C13.8344 29.4946 14.7621 29.8766 15.8534 29.8766L15.8715 29.9313C16.7627 29.9313 17.5266 29.6765 18.1633 29.1673C18.7998 28.6581 19.2363 27.8942 19.4546 26.8756L21.8554 27.3667C21.5644 28.8945 20.8733 30.0949 19.7638 30.9497C18.6543 31.8046 17.3449 32.2411 15.8351 32.2411C14.0346 32.2411 12.525 31.6227 11.2882 30.4042C10.0514 29.1855 9.43304 27.6759 9.43304 25.8752C9.43304 24.0929 10.0514 22.5833 11.2882 21.3465C12.525 20.1097 14.0346 19.4913 15.8351 19.4913C17.3266 19.4913 18.6179 19.9097 19.7274 20.7462C20.8369 21.5829 21.5463 22.7288 21.8554 24.1657L19.4546 24.8387C19.2363 23.8383 18.7998 23.0743 18.145 22.5651C17.4902 22.0558 16.7265 21.8012 15.8351 21.8012C14.7257 21.8012 13.7982 22.1832 13.0524 22.9469C12.3067 23.7109 11.9247 24.6749 11.9247 25.8207C11.9247 26.9666 12.3067 27.9306 13.0707 28.7126ZM26.93 28.7126C27.6937 29.4946 28.6214 29.8766 29.7127 29.8766L29.7308 29.9313C30.622 29.9313 31.3859 29.6765 32.0225 29.1673C32.6591 28.6581 33.0956 27.8942 33.3139 26.8756L35.7147 27.3667C35.4237 28.8945 34.7326 30.0949 33.6231 30.9497C32.5136 31.8046 31.2042 32.2411 29.6944 32.2411C27.8939 32.2411 26.3843 31.6227 25.1475 30.4042C23.9107 29.1855 23.2923 27.6759 23.2923 25.8752C23.2923 24.0929 23.9107 22.5833 25.1475 21.3465C26.3843 20.1097 27.8939 19.4913 29.6944 19.4913C31.1859 19.4913 32.4772 19.9097 33.5866 20.7462C34.6962 21.5829 35.4055 22.7288 35.7147 24.1657L33.3139 24.8387C33.0956 23.8383 32.6591 23.0743 32.0043 22.5651C31.3495 22.0558 30.5858 21.8012 29.6944 21.8012C28.585 21.8012 27.6574 22.1832 26.9117 22.9469C26.166 23.7109 25.784 24.6749 25.784 25.8207C25.784 26.9666 26.166 27.9306 26.93 28.7126ZM44.4268 27.3849L48.5191 31.9137H45.5181L41.4986 27.4394H40.2072V31.9137H37.7336V19.7278H43.572C44.8814 19.7278 45.9364 20.0915 46.7367 20.8009C47.5369 21.5103 47.9371 22.4378 47.9371 23.5836C47.9371 24.6021 47.6278 25.457 46.9913 26.13C46.3548 26.8029 45.4998 27.2212 44.4268 27.3849ZM40.2072 21.9648V25.2023L43.572 25.166C44.1358 25.166 44.5904 25.0204 44.9361 24.7294C45.2816 24.4384 45.4634 24.0565 45.4634 23.5653C45.4634 23.0743 45.2816 22.6923 44.9361 22.4013C44.5904 22.1103 44.1358 21.9648 43.572 21.9648H40.2072ZM51.1199 21.3101C52.3566 20.0733 53.8663 19.4549 55.6669 19.4549L55.7033 19.4368C57.5039 19.4368 59.0135 20.0552 60.2502 21.2919C61.487 22.5287 62.1055 24.0383 62.1055 25.8207C62.1055 27.5849 61.487 29.0945 60.2502 30.3314C59.0135 31.5681 57.4856 32.1865 55.685 32.1865C53.8845 32.1865 52.3566 31.5681 51.1199 30.3314C49.8831 29.0945 49.2647 27.6032 49.2647 25.839C49.2647 24.0565 49.8831 22.547 51.1199 21.3101ZM52.9024 28.6945C53.6662 29.4584 54.5937 29.8403 55.7033 29.8403C56.8127 29.8403 57.7404 29.4584 58.5043 28.6945C59.2681 27.9306 59.6501 26.9666 59.6501 25.8207C59.6501 24.6749 59.2681 23.7109 58.5043 22.9288C57.7404 22.1468 56.8127 21.7648 55.7033 21.7648C54.5937 21.7648 53.6662 22.1468 52.9024 22.9288C52.1384 23.7109 51.7565 24.6749 51.7565 25.8207C51.7565 26.9666 52.1384 27.9306 52.9024 28.6945ZM6.16955 42.6274C5.95139 42.8872 5.72266 43.0327 5.47333 43.0743L5.4628 43.0847C5.78506 43.1262 6.06562 43.2926 6.31518 43.5836C6.56451 43.8746 6.68926 44.2487 6.68926 44.7164C6.68926 45.3088 6.50224 45.7764 6.12802 46.1298C5.75393 46.4832 5.19264 46.6599 4.44432 46.6599H1.00428V39.6965H4.43389C5.05758 39.6965 5.55633 39.8732 5.93056 40.2266C6.30465 40.58 6.49181 41.0476 6.49181 41.6296C6.49181 42.035 6.38788 42.3675 6.16955 42.6274ZM4.2677 40.8813H2.40724L2.42807 42.6066H4.19485C4.47559 42.6066 4.70419 42.5234 4.87038 42.3572C5.03671 42.1909 5.11994 41.9727 5.11994 41.7024C5.11994 41.4633 5.03671 41.266 4.87038 41.11C4.70419 40.9541 4.50673 40.8813 4.2677 40.8813ZM2.42807 43.7291V45.4543L4.28839 45.4336C4.60021 45.4336 4.83925 45.3608 5.00557 45.2049C5.17181 45.049 5.25504 44.8411 5.25504 44.5813C5.25504 44.3215 5.17181 44.1136 5.00557 43.9577C4.83925 43.8018 4.62095 43.7291 4.35079 43.7291H2.42807ZM12.4885 41.7231C12.4885 42.409 12.2288 42.8872 11.7091 43.1679L11.7715 43.1886C12.0522 43.303 12.2704 43.4901 12.4263 43.7395C12.5822 43.989 12.6549 44.2799 12.6549 44.6125C12.6549 45.2777 12.4263 45.8181 11.9689 46.2233C11.5116 46.6288 10.9193 46.8366 10.1813 46.8366C9.45384 46.8366 8.85102 46.6391 8.38327 46.2338C7.91564 45.8285 7.65578 45.2984 7.60382 44.6333L8.92368 44.3734C9.03804 45.1945 9.45384 45.6102 10.1813 45.6102C10.5243 45.6102 10.8048 45.5167 11.0232 45.3296C11.2415 45.1426 11.3557 44.9035 11.3557 44.6125C11.3557 44.3422 11.2622 44.124 11.0751 43.9577C10.8881 43.7914 10.6282 43.7082 10.2957 43.7082H9.49537V42.5858H10.2126C10.5347 42.5858 10.7841 42.5026 10.9608 42.3468C11.1375 42.1909 11.231 41.983 11.231 41.7231C11.231 41.4426 11.1375 41.2139 10.94 41.0476C10.7426 40.8813 10.4827 40.7982 10.1604 40.7982C9.81763 40.7982 9.53694 40.9021 9.31865 41.11C9.10045 41.3179 8.97578 41.6296 8.94451 42.0558L7.65578 41.7959C7.70774 41.1308 7.95721 40.5903 8.4041 40.1746C8.85102 39.7589 9.42271 39.551 10.1189 39.551C10.8257 39.551 11.3974 39.7484 11.8339 40.1538C12.2704 40.5592 12.4885 41.0787 12.4885 41.7231ZM21.3123 45.9221H17.3214V39.7069H16.5004V46.6704H21.3123V45.9221ZM23.4118 46.6704V39.7069H22.5908V46.6704H23.4118ZM27.5482 39.5718C26.8103 39.5718 26.2179 39.7589 25.7606 40.1227C25.3033 40.4864 25.0746 40.9645 25.0746 41.557C25.0746 42.4923 25.6359 43.0847 26.7479 43.3341L28.3173 43.6771C28.7226 43.7706 29.0137 43.8953 29.1903 44.0512C29.3671 44.2071 29.4606 44.4462 29.4606 44.7684C29.4606 45.1529 29.315 45.4648 29.0137 45.7037C28.7123 45.9428 28.2965 46.0571 27.7665 46.0571C27.2156 46.0571 26.7583 45.9221 26.3945 45.6518C26.0308 45.3815 25.8125 45.0074 25.7398 44.5189L24.8772 44.6956C24.9604 45.3401 25.2617 45.8492 25.7814 46.2233C26.301 46.5976 26.9454 46.7846 27.7041 46.7846C28.4837 46.7846 29.1072 46.5976 29.5748 46.2233C30.0426 45.8492 30.2816 45.3504 30.2816 44.7164C30.2816 43.7602 29.6996 43.1574 28.5251 42.9081L27.0078 42.565C26.6648 42.4923 26.4049 42.3779 26.2283 42.2116C26.0516 42.0454 25.9684 41.8167 25.9684 41.5154C25.9684 41.1412 26.1139 40.8397 26.4049 40.6111C26.6959 40.3825 27.0806 40.2682 27.5482 40.2682C28.0263 40.2682 28.4316 40.3928 28.7538 40.6423C29.0759 40.8917 29.2734 41.2244 29.3462 41.6504L30.1674 41.4633C30.0529 40.8813 29.7619 40.4137 29.2943 40.0707C28.8265 39.7278 28.2549 39.551 27.569 39.551L27.5482 39.5718ZM36.8814 40.4448V39.7069H30.8845V40.4448H33.4723V46.6704H34.3039V40.4448H36.8814ZM43.1381 45.9221H38.8769V43.542H42.8263V42.8041H38.8769V40.4448H43.1277V39.7069H38.0558V46.6704H43.1381V45.9221ZM44.6763 39.7069V46.6704H46.9835C48.1788 46.6704 49.1245 46.3377 49.8105 45.6829C50.4964 45.0281 50.8395 44.1968 50.8395 43.1886C50.8395 42.17 50.4964 41.3386 49.8105 40.6838C49.1245 40.0292 48.1892 39.7069 46.994 39.7069H44.6763ZM45.5077 45.9221V40.4448H46.9835C47.9293 40.4448 48.6776 40.7047 49.2181 41.214C49.7585 41.7232 50.0288 42.3779 50.0288 43.1783C50.0288 43.9785 49.7585 44.6333 49.2181 45.1426C48.6776 45.6518 47.9397 45.9116 46.994 45.9116L45.5077 45.9221ZM61.0247 39.7069H60.2036V45.2984L55.6514 39.7069H54.9448V46.6704H55.7658V41.1412L60.318 46.6704H61.0247V39.7069ZM70.3473 39.7069H69.6302L66.5954 45.4439L63.5606 39.7069H62.8435V46.6704H63.6333V41.557L66.3355 46.6704H66.8656L69.5575 41.557V46.6704H70.3473V39.7069ZM70.8462 35.6164H0.692322V36.0062H70.8462V35.6164Z" fill="white"/>
</svg>
