<svg width="43" height="65" viewBox="0 0 43 65" fill="none" xmlns="http://www.w3.org/2000/svg">
<path fill-rule="evenodd" clip-rule="evenodd" d="M5.15233 23.794L3.91239 23.5805V23.5621L4.19792 22.1728L5.44412 22.4695L5.52779 22.9082L5.65681 22.9358L6.03138 21.5115L5.89706 21.4842L5.64686 21.8488L3.03819 21.1978L2.95445 20.7601L2.81876 20.7323L2.4651 22.1675L2.60139 22.195L2.85409 21.8304L3.9575 22.1122L3.6719 23.5306L2.54992 23.3394L2.4651 22.9026L2.33051 22.8751L2.08579 24.3269L2.2199 24.3542L2.47065 23.9896L5.10127 24.4168L5.18539 24.8535L5.31974 24.8811L5.53804 23.4569L5.40544 23.4296L5.15233 23.794ZM40.7283 26.6449V26.3871C40.724 25.6203 40.6852 25.0561 40.6852 25.0561H39.7604V25.2515L40.4372 25.4928L40.4496 26.1828H37.7411L37.5734 25.6457H37.4333C37.4333 25.6457 37.4711 26.4736 37.4333 27.3492H37.5677L37.7411 26.8107L40.4496 26.8158L40.4372 27.495L39.7604 27.7413V27.9432H40.6795C40.713 27.4997 40.7258 27.0517 40.7283 26.6449ZM6.35782 20.0536L5.15233 19.5544V19.5495L5.4938 18.7981L5.9377 18.8039L6.01518 18.624L5.01705 18.1753L4.93919 18.356L5.27023 18.6968L4.92711 19.4585L3.77319 19.0173L4.19792 17.9341L4.81588 17.9405L4.88788 17.7664L4.17552 17.4469C4.17552 17.4469 3.66102 18.5907 3.14409 19.8806L3.26847 19.9365L3.59239 19.6268L6.06045 20.598L6.04917 21.0408L6.17709 21.0961C6.64889 19.9243 7.16386 18.8698 7.16386 18.8698L6.4815 18.5015L6.3969 18.6802L6.78905 19.1685L6.35782 20.0536ZM9.61015 15.2533L8.91519 14.6604L9.04325 14.2339L8.93711 14.1491L8.00587 15.2436L8.11179 15.3281L8.50949 15.1192L9.11587 15.629C9.11587 15.629 9.09927 15.7085 9.00887 15.8257C8.5095 16.4381 7.79336 16.4823 7.13723 15.9446C6.40199 15.3439 6.25699 14.6144 6.9511 13.8689C7.02482 13.7905 7.09744 13.7283 7.18736 13.6795L7.82689 13.9077L7.98301 13.7181L7.36682 13.1958L7.30041 13.2473C6.96225 13.5154 6.7049 13.7336 6.5252 13.9472C5.7074 14.9062 5.91484 15.7866 6.72261 16.4493C7.51888 17.1052 8.38846 17.0099 9.04834 16.2021C9.24997 15.9554 9.40147 15.6911 9.61015 15.2533ZM8.56143 12.366L10.2877 14.4073L10.0867 14.8001L10.175 14.9062C11.0557 14.1257 11.9308 13.4148 11.9308 13.4148L11.4443 12.7197L11.2864 12.8548L11.4443 13.5096L10.8041 14.0429L9.04834 11.9567L9.24998 11.5589L9.16075 11.4585L8.04536 12.3946L8.13512 12.5012L8.56143 12.366ZM12.0434 9.4727C11.085 9.98829 10.8712 10.9369 11.4168 11.8564C11.9033 12.6798 12.7321 12.9556 13.5344 12.5124C14.4095 12.0305 14.6276 11.0717 14.1626 10.1515C13.7361 9.30992 12.9346 8.99619 12.0434 9.4727ZM13.4784 12.2379C13.0075 12.4844 12.3858 12.1928 11.9252 11.4299C11.4774 10.6837 11.4881 10.05 12.0938 9.72587C12.6602 9.42272 13.248 9.77624 13.6181 10.5206C14.0052 11.3019 13.9335 11.9956 13.4784 12.2379ZM14.7346 8.6216L15.5971 11.1599L15.2571 11.4474L15.2959 11.5753L16.6127 11.1154C17.0441 10.9811 17.263 10.8579 17.4263 10.6504C17.5884 10.4544 17.6388 10.1744 17.5608 9.91638C17.4099 9.42765 16.9822 9.25955 16.3207 9.44097C16.8719 9.1925 17.1296 8.80654 16.9933 8.37978C16.9326 8.17173 16.7981 8.0207 16.5952 7.93077C16.3669 7.83004 16.1426 7.83004 15.7829 7.94237L14.2519 8.44637L14.2916 8.57609L14.7346 8.6216ZM15.9395 9.46784L15.7333 9.54069L15.3241 8.34069L15.609 8.2279C15.9898 8.09998 16.2712 8.25656 16.3886 8.63805C16.5068 9.01954 16.3154 9.34971 15.9395 9.46784ZM16.4002 10.948L16.2206 11.0144L15.794 9.75313L16.03 9.66971C16.4828 9.52957 16.8036 9.68608 16.9326 10.1007C16.9933 10.3023 16.9767 10.4822 16.8831 10.6396C16.7806 10.7914 16.6689 10.8636 16.4002 10.948ZM18.6531 10.2925L18.9117 9.31571L19.9099 9.20339L20.3238 10.1127L19.9716 10.3256L19.983 10.4599L21.4012 10.376L21.3898 10.235L21.0037 10.106L19.5286 7.18073L19.2868 7.20274L18.3065 10.3935L17.9585 10.5998L17.9696 10.7347L19.0639 10.5612L19.0466 10.4269L18.6531 10.2925ZM19.8082 8.98601L18.9735 9.07437L19.3157 7.9039L19.8082 8.98601ZM22.3551 7.47158L22.1252 10.1282L21.6982 10.2646L21.6874 10.3974C22.6971 10.4433 23.9299 10.5945 23.9299 10.5945L24.0762 9.75313L23.8737 9.73606L23.5153 10.308L22.7479 10.2297L22.9884 7.49939L23.4138 7.36481L23.4269 7.2307C23.4269 7.2307 22.7301 7.16271 21.9748 7.12903L21.9621 7.264L22.3551 7.47158ZM28.0398 10.819L27.5757 11.3626C27.4404 11.3459 27.3674 11.3241 27.2613 11.2855C26.5329 11.0271 26.2456 10.376 26.4996 9.56286C26.7401 8.77811 27.3004 8.3016 28.3271 8.66022C28.4672 8.71176 28.574 8.77811 28.574 8.77811V9.48406L28.7814 9.55173L29.0552 8.78924C28.7241 8.5652 28.4372 8.40203 28.1526 8.31273C26.9411 7.93078 26.1839 8.35777 25.8759 9.36123C25.5799 10.3198 25.9429 11.0992 26.8795 11.4356C27.1536 11.5369 27.4023 11.5821 27.8619 11.6262L27.9403 11.6317L28.2476 10.8927L28.0398 10.819ZM35.8345 13.6288L33.5075 14.4797L34.371 12.1419L33.557 11.4408L33.458 11.5369L33.6254 11.9506L31.7744 13.8689L31.3605 13.7005L31.2646 13.7964L32.1497 14.5417L32.252 14.4466L32.0944 14.0429L33.5803 12.4515L32.6329 15.0124L32.7175 15.1032L35.2799 14.177L33.6763 15.6421L33.2772 15.4782L33.1813 15.5793C33.1813 15.5793 33.6312 16.0845 34.0791 16.6167L34.1823 16.5208L34.006 16.1008L35.996 14.3454L36.4119 14.5203L36.5123 14.4244L35.8345 13.6288ZM35.1728 17.6594L36.0595 17.0872L36.2369 17.3785C36.6368 18.0245 37.231 18.2527 37.7466 17.9341C37.9991 17.7766 38.1392 17.548 38.1614 17.2729C38.1778 16.9962 38.1061 16.7523 37.8479 16.3423L37.074 15.1643L36.9544 15.2375L37.0174 15.6634L34.8136 17.1325L34.4601 16.892L34.3441 16.9631C34.3441 16.9631 34.7576 17.5746 35.1345 18.1701L35.2454 18.098L35.1728 17.6594ZM36.7148 17.4743C36.564 17.424 36.4627 17.3355 36.3226 17.1052L36.2369 16.9762L37.4559 16.1628L37.6287 16.4206C37.763 16.6214 37.7856 16.7568 37.7466 16.9302C37.7078 17.1106 37.5792 17.2617 37.3767 17.3903C37.1571 17.5251 36.918 17.5362 36.7148 17.4743ZM36.1883 19.4151L37.1977 19.4196L37.5792 20.3509L36.8496 21.0126L36.5533 20.7323L36.4237 20.7819C36.4237 20.7819 36.6421 21.4158 36.8606 22.1013L36.9892 22.0496L37.0068 21.6405L39.4233 19.454L39.3273 19.1791L35.9866 19.1112L35.6884 18.8247L35.5601 18.8829C35.5601 18.8829 35.8235 19.3967 36.042 19.8806L36.1714 19.8298L36.1883 19.4151ZM37.7573 20.1879L37.4502 19.4076L38.6657 19.4196L37.7573 20.1879ZM38.2793 24.4006L37.5677 24.2705L37.5616 24.2587C37.5491 24.2214 37.5371 24.1893 37.5259 24.159L37.5259 24.159C37.5019 24.0941 37.4812 24.0384 37.4653 23.9616C37.3157 23.1771 37.7304 22.6566 38.5724 22.4421C39.4282 22.2236 40.0728 22.6229 40.2522 23.552C40.2751 23.6654 40.28 23.7711 40.2751 23.8548L39.67 24.2141L39.7098 24.4279L40.516 24.2815C40.5451 23.8835 40.5345 23.5233 40.4767 23.228C40.2704 22.129 39.475 21.5461 38.4305 21.8038C37.4382 22.0496 36.951 22.7113 37.1468 23.7105C37.2022 23.9949 37.2937 24.2309 37.4886 24.6508L37.5221 24.7188L38.3179 24.6122L38.2793 24.4006ZM4.9449 26.2943L2.23659 26.2896L2.2477 25.6108L2.92562 25.3637V25.1629H2.00652C1.97143 25.6283 1.95883 26.0991 1.95773 26.5216V26.6409C1.95945 27.4471 2.00097 28.0502 2.00097 28.0502H2.92562V27.8528L2.2477 27.6125L2.23659 26.9226H4.9449L5.11255 27.4602H5.25268C5.25268 27.4602 5.21383 26.6313 5.25268 25.7562H5.11678L4.9449 26.2943ZM31.5326 9.95523C30.608 9.3841 29.684 9.67503 29.1571 10.6111C28.6917 11.4474 28.8709 12.299 29.6554 12.7702C30.5141 13.2871 31.456 12.9884 32.0153 12.1256C32.5327 11.3352 32.3983 10.4822 31.5326 9.95523ZM29.8679 12.5847C29.4198 12.299 29.3567 11.615 29.7844 10.8356C30.2056 10.0734 30.7597 9.75893 31.3429 10.1229C31.8918 10.4655 31.8754 11.1487 31.422 11.8453C30.9397 12.5685 30.306 12.8548 29.8679 12.5847ZM8.45273 40.469C7.51704 40.2817 6.58137 40.0945 5.7978 39.4751C4.47686 38.431 3.22251 36.8061 2.968 34.9582C3.56639 36.5613 4.73986 37.227 5.92029 37.8965C6.5902 38.2765 7.26236 38.6578 7.83291 39.2124C8.12314 39.5144 8.42465 39.776 8.75287 39.9565L8.7719 39.9347L8.75142 39.913C8.39193 39.5309 7.98277 39.0961 7.73609 38.6056C7.22785 37.7693 7.09851 36.747 6.9691 35.7243C6.8637 34.8912 6.75825 34.0578 6.44796 33.3244C7.07659 34.2152 7.6457 35.1373 8.02609 36.149C8.16277 36.5497 8.27902 36.9629 8.39545 37.3768C8.75755 38.6639 9.12153 39.9578 10.108 40.9008C9.57827 40.6942 9.01549 40.5816 8.45273 40.469ZM16.1055 42.1754C16.3116 42.1754 16.4628 42.1059 16.4628 42.1059L16.4387 42.1006L16.4387 42.1005C15.2258 41.8316 14.201 41.6043 13.1607 40.739C12.711 40.3642 12.2955 39.9874 11.887 39.6169L11.887 39.6169C11.0412 38.8498 10.2254 38.11 9.19696 37.4711C9.29117 37.5306 9.55239 37.9964 9.88048 38.5815C10.2151 39.1781 10.6192 39.8987 10.9867 40.439C11.494 41.1859 12.3141 41.6063 13.0288 41.7818C13.6499 41.9325 13.7805 41.9987 13.7805 41.9987C13.7805 41.9987 13.6745 42.0573 13.4489 42.0058C13.4489 42.0058 11.4205 41.5821 10.3239 41.5821C5.95081 41.5821 4.82124 39.9121 4.82124 39.9121C6.11492 42.2602 8.78439 43.1313 10.5337 43.1313C12.0045 43.1313 13.2626 42.7981 14.2933 42.5252C15.0084 42.3358 15.6142 42.1754 16.1055 42.1754ZM37.8648 39.9121C36.5718 42.2602 33.9022 43.1313 32.1522 43.1313C30.6816 43.1313 29.4236 42.7981 28.393 42.5252C27.6779 42.3358 27.0722 42.1754 26.5809 42.1754C26.3744 42.1754 26.2232 42.1059 26.2232 42.1059L26.2475 42.1005C27.4604 41.8315 28.4852 41.6043 29.5251 40.739C29.9748 40.3642 30.3902 39.9875 30.7986 39.6172C31.6446 38.85 32.4606 38.1101 33.4891 37.4711C33.3953 37.5304 33.1353 37.9939 32.8083 38.5768L32.8082 38.5768C32.473 39.1743 32.0674 39.8973 31.6983 40.439C31.1918 41.1859 30.3724 41.6063 29.6561 41.7818C29.0366 41.9325 28.9055 41.9987 28.9055 41.9987C28.9055 41.9987 29.0108 42.0573 29.2371 42.0058C29.2371 42.0058 31.2646 41.5821 32.3615 41.5821C36.7356 41.5821 37.8648 39.9121 37.8648 39.9121ZM5.00287 36.1354C5.4294 36.5005 6.31362 37.3196 6.47507 37.5486C6.47507 37.5486 6.37645 37.215 6.27696 36.806C6.25566 36.7189 6.23251 36.6045 6.20531 36.4702C6.10495 35.9746 5.94945 35.2066 5.62836 34.5249C5.546 34.3497 5.39668 34.0732 5.21586 33.7384C4.69272 32.7696 3.90593 31.3126 3.71436 30.4095C3.71436 30.4095 2.76417 34.2292 5.00287 36.1354ZM34.2324 40.469C33.6698 40.5816 33.1072 40.6942 32.5773 40.9008C33.5634 39.9577 33.9276 38.6637 34.2899 37.3764C34.4064 36.9626 34.5226 36.5495 34.6593 36.149C35.0395 35.1373 35.6088 34.2152 36.237 33.3244C35.9268 34.058 35.8214 34.8917 35.7161 35.725C35.587 36.7475 35.4579 37.7695 34.9504 38.6056C34.7057 39.0896 34.303 39.5194 33.9485 39.8978L33.9485 39.8978L33.9139 39.9347L33.9323 39.9565C34.2593 39.776 34.562 39.5144 34.8525 39.2124C35.4233 38.658 36.0952 38.2768 36.7649 37.8969C37.9454 37.2272 39.1187 36.5616 39.7176 34.9582C39.462 36.8061 38.2081 38.431 36.8871 39.4751C36.1033 40.0946 35.168 40.2818 34.2324 40.469ZM29.1007 43.6638C28.8795 43.5739 28.6574 43.4815 28.434 43.3886C26.4615 42.568 24.3955 41.7086 22.0356 42.1885C21.9646 42.2014 21.8969 42.2149 21.8312 42.228L21.831 42.2281L21.831 42.2281C21.6233 42.2695 21.4369 42.3067 21.2389 42.3067C21.0421 42.3067 20.8553 42.2694 20.6473 42.2279L20.647 42.2278C20.5817 42.2148 20.5143 42.2014 20.4439 42.1885C18.0857 41.7088 16.0205 42.5673 14.0473 43.3875C13.8229 43.4808 13.5998 43.5735 13.3775 43.6638C11.7538 44.2609 9.62796 44.1634 8.20017 43.2424C8.90651 44.0695 9.85066 44.5853 10.8273 44.9299C12.6411 45.6076 14.7972 45.1453 16.3005 44.1634C16.6329 43.9888 16.9533 43.7703 17.275 43.551C18.199 42.921 19.1335 42.2839 20.3916 42.6579C18.6662 43.41 17.0883 44.4632 15.6575 45.8157L16.5538 46.5069C16.5538 46.5069 18.2295 44.2518 21.2389 42.8957C24.2501 44.2518 25.9266 46.5069 25.9266 46.5069L26.8218 45.8157C25.3925 44.4632 23.8138 43.41 22.0893 42.6579C23.3451 42.2839 24.2796 42.9209 25.2037 43.5509C25.5256 43.7702 25.8461 43.9888 26.1786 44.1634C27.682 45.1453 29.8377 45.6076 31.6528 44.9299C32.6291 44.5853 33.5721 44.0695 34.2798 43.2424C32.8507 44.1634 30.7268 44.2609 29.1007 43.6638ZM38.9706 30.4095C38.9706 30.4095 39.9207 34.2292 37.6824 36.1354C37.2559 36.5005 36.3717 37.3196 36.2103 37.5486C36.2103 37.5486 36.3098 37.215 36.409 36.806C36.4298 36.7201 36.4524 36.6079 36.4789 36.4761L36.4789 36.476L36.479 36.476C36.5787 35.9806 36.7339 35.2092 37.0556 34.5249C37.1376 34.3512 37.2854 34.0779 37.4644 33.7468C37.9881 32.7781 38.7791 31.3152 38.9706 30.4095ZM5.22185 54.0102V50.2078H4.7313V53.0736H4.71557L2.90747 50.2078H2.39047V54.0048H2.88632V51.0969H2.89674L4.72043 54.0102H5.22185ZM8.85903 52.709V51.4664C8.85903 50.629 8.21904 50.1385 7.39795 50.1385C6.60317 50.1385 5.94705 50.6561 5.94705 51.525V52.7889C5.94705 53.6318 6.59785 54.0742 7.39795 54.0742C8.17643 54.0742 8.85903 53.5783 8.85903 52.709ZM8.32034 52.7462C8.32034 53.3167 7.92036 53.6103 7.40837 53.6103C6.85925 53.6103 6.48043 53.2956 6.48043 52.757V51.4984C6.48043 50.9171 6.88033 50.608 7.38707 50.608C7.95241 50.608 8.32565 50.9224 8.32565 51.4558L8.32034 52.7462ZM8.25632 48.8642H7.70697L7.24316 49.8242H7.61666L8.25632 48.8642ZM12.1812 52.9222C12.1812 52.357 11.8347 52.0853 11.4292 51.9467C11.3318 51.9115 11.0176 51.8192 10.8078 51.7576L10.8076 51.7575C10.7306 51.7349 10.6677 51.7164 10.6347 51.7064C10.3309 51.6211 10.096 51.4719 10.096 51.1731C10.096 50.7947 10.448 50.5922 10.8106 50.5922C11.216 50.5922 11.4932 50.7412 11.6637 51.0985L12.1173 50.9066C11.9144 50.3573 11.4239 50.1438 10.8159 50.1438C10.1175 50.1438 9.56819 50.5331 9.56819 51.2266C9.56819 51.7118 9.87198 51.9888 10.2399 52.1279C10.3574 52.1702 10.8799 52.325 11.0026 52.357C11.3655 52.4532 11.648 52.6077 11.648 52.9757C11.648 53.4184 11.2214 53.6156 10.8159 53.6156C10.3092 53.6156 9.98946 53.3384 9.86687 52.9383L9.36569 53.0931C9.52533 53.7222 10.0749 54.0742 10.8052 54.0742C11.568 54.0742 12.1812 53.6529 12.1812 52.9222ZM17.0875 54.0102L15.7114 50.1921H15.2209L13.8291 54.0102H14.3622L14.7088 53.013H16.1915L16.5379 54.0102H17.0875ZM16.042 52.5649H14.8581L15.4445 50.8586H15.4554L16.042 52.5649ZM20.2494 51.3545C20.2494 50.629 19.7374 50.2078 18.9856 50.2078H17.6206V54.0102H18.1431V52.5275H18.9751C19.812 52.5275 20.2494 52.0159 20.2494 51.3545ZM19.7216 51.3545C19.7216 51.8398 19.4174 52.0797 18.8843 52.0797H18.1431V50.6561H18.8738C19.3908 50.6561 19.7216 50.8797 19.7216 51.3545ZM23.7052 52.709V51.4664C23.7052 50.629 23.0654 50.1385 22.2441 50.1385C21.4494 50.1385 20.7934 50.6561 20.7934 51.525V52.7889C20.7934 53.6318 21.4441 54.0742 22.2441 54.0742C23.0226 54.0742 23.7052 53.5783 23.7052 52.709ZM23.172 51.4558V52.7462C23.172 53.3167 22.7666 53.6103 22.2545 53.6103C21.7056 53.6103 21.3266 53.2956 21.3266 52.757V51.4984C21.3266 50.9171 21.7267 50.608 22.2334 50.608C22.7985 50.608 23.172 50.9224 23.172 51.4558ZM26.5101 54.0102V53.5463H25.6943V50.6719H26.5101V50.2078H24.3504V50.6719H25.1663V53.5463H24.3504V54.0102H26.5101ZM30.2219 54.0102L28.8458 50.1921H28.3553L26.9635 54.0102H27.4969L27.8432 53.013H29.3259L29.6725 54.0102H30.2219ZM29.1766 52.5649H27.9927L28.5791 50.8586H28.5898L29.1766 52.5649ZM34.2052 54.0102V50.2078H33.4906L32.4881 52.645H32.4772L31.4642 50.2078H30.7552V54.0102H31.2615V51.0292H31.2775L32.264 53.3702H32.6801L33.6718 51.0236H33.6931V54.0102H34.2052ZM37.837 52.709V51.4664C37.837 50.629 37.1971 50.1385 36.3759 50.1385C35.5812 50.1385 34.9251 50.6561 34.9251 51.525V52.7889C34.9251 53.6318 35.5759 54.0742 36.3759 54.0742C37.1545 54.0742 37.837 53.5783 37.837 52.709ZM37.3036 51.4558V52.7462C37.3036 53.3167 36.8982 53.6103 36.3862 53.6103C35.8372 53.6103 35.4585 53.2956 35.4585 52.757V51.4984C35.4585 50.9171 35.8583 50.608 36.365 50.608C36.9302 50.608 37.3036 50.9224 37.3036 51.4558ZM41.159 52.9222C41.159 52.357 40.8127 52.0853 40.4072 51.9467C40.31 51.9115 39.9965 51.8195 39.7866 51.7579L39.7862 51.7577C39.7088 51.735 39.6456 51.7165 39.6125 51.7064C39.3087 51.6211 39.074 51.4719 39.074 51.1731C39.074 50.7947 39.4258 50.5922 39.7886 50.5922C40.1941 50.5922 40.4712 50.7412 40.6417 51.0985L41.0954 50.9066C40.8924 50.3573 40.4019 50.1438 39.7939 50.1438C39.0956 50.1438 38.5462 50.5331 38.5462 51.2266C38.5462 51.7118 38.85 51.9888 39.2179 52.1279C39.3354 52.1702 39.8578 52.325 39.9807 52.357C40.3433 52.4532 40.6259 52.6077 40.6259 52.9757C40.6259 53.4184 40.1994 53.6156 39.7939 53.6156C39.2872 53.6156 38.9673 53.3384 38.8449 52.9383L38.3435 53.0931C38.5034 53.7222 39.0527 54.0742 39.783 54.0742C40.5458 54.0742 41.159 53.6529 41.159 52.9222ZM3.75808 58.0632V56.8209C3.75808 55.9833 3.11819 55.4928 2.29702 55.4928C1.50232 55.4928 0.846191 56.0104 0.846191 56.8793V58.1432C0.846191 58.9861 1.49676 59.4283 2.29702 59.4283C3.07535 59.4283 3.75808 58.9326 3.75808 58.0632ZM3.22473 56.81V58.1005C3.22473 58.6712 2.81927 58.9645 2.30721 58.9645C1.75832 58.9645 1.37948 58.6499 1.37948 58.1112V56.8527C1.37948 56.2713 1.77946 55.9622 2.28612 55.9622C2.85122 55.9622 3.22473 56.2768 3.22473 56.81ZM8.39201 56.7088C8.39201 55.9833 7.88002 55.5621 7.12793 55.5621H5.76321V59.3644H6.28569V57.8818H7.11768C7.9546 57.8818 8.39201 57.3702 8.39201 56.7088ZM7.8642 56.7088C7.8642 57.1941 7.56002 57.4342 7.02665 57.4342H6.28569V56.0104H7.01646C7.53339 56.0104 7.8642 56.234 7.8642 56.7088ZM11.7254 59.3644L10.3494 55.5463H9.85888L8.46705 59.3644H9.00019L9.34683 58.3675H10.8295L11.1758 59.3644H11.7254ZM10.68 57.9191H9.49604L10.0824 56.2129H10.0933L10.68 57.9191ZM14.8874 58.3035V58.1698H14.3807V58.25C14.3807 58.7139 14.0343 58.9699 13.5167 58.9699C12.9678 58.9699 12.589 58.6499 12.589 58.1112V56.8209C12.589 56.2608 12.9889 55.9569 13.4956 55.9569C14.0129 55.9569 14.3863 56.2129 14.3863 56.6768V56.7514H14.8874V56.6181C14.8874 55.9194 14.2741 55.4928 13.5065 55.4928C12.6689 55.4928 12.0556 56.0424 12.0556 56.8581V58.1432C12.0556 59.0234 12.7329 59.4283 13.5329 59.4283C14.2102 59.4283 14.8874 59.0657 14.8874 58.3035ZM18.0441 56.0206V55.5621H15.3195V56.0206H16.4178V59.3644H16.9511V56.0206H18.0441ZM21.4307 58.0632V56.8209C21.4307 55.9833 20.7908 55.4928 19.9694 55.4928C19.1749 55.4928 18.5188 56.0104 18.5188 56.8793V58.1432C18.5188 58.9861 19.1694 59.4283 19.9694 59.4283C20.7479 59.4283 21.4307 58.9326 21.4307 58.0632ZM20.8974 56.81V58.1005C20.8974 58.6712 20.4919 58.9645 19.9799 58.9645C19.431 58.9645 19.0521 58.6499 19.0521 58.1112V56.8527C19.0521 56.2713 19.452 55.9622 19.9588 55.9622C20.5239 55.9622 20.8974 56.2768 20.8974 56.81ZM26.1874 58.1914V57.4128H24.7208V57.8871H25.6861V58.1861C25.6861 58.7192 25.3019 58.9645 24.8005 58.9645C24.2516 58.9645 23.8728 58.6499 23.8728 58.1112V56.8527C23.8728 56.2713 24.2727 55.9622 24.7794 55.9622C25.2968 55.9622 25.6861 56.1596 25.6861 56.7088V56.778H26.1874V56.6556C26.1874 55.829 25.5579 55.4928 24.7901 55.4928C23.9528 55.4928 23.3394 56.0104 23.3394 56.8793V58.1432C23.3394 58.9861 23.9901 59.4283 24.7901 59.4283C25.5526 59.4283 26.1874 59.0338 26.1874 58.1914ZM29.3284 59.3644V58.9006H27.478V55.5621H26.9502V59.3644H29.3284ZM32.7148 58.0632V56.8209C32.7148 55.9833 32.0748 55.4928 31.2537 55.4928C30.459 55.4928 29.8031 56.0104 29.8031 56.8793V58.1432C29.8031 58.9861 30.4536 59.4283 31.2537 59.4283C32.0322 59.4283 32.7148 58.9326 32.7148 58.0632ZM32.1817 56.81V58.1005C32.1817 58.6712 31.7762 58.9645 31.2642 58.9645C30.715 58.9645 30.3362 58.6499 30.3362 58.1112V56.8527C30.3362 56.2713 30.7363 55.9622 31.2428 55.9622C31.8082 55.9622 32.1817 56.2768 32.1817 56.81ZM36.1383 58.2819C36.1383 57.8498 35.8985 57.4979 35.4558 57.3806V57.3702C35.8075 57.2261 36.0262 56.9221 36.0262 56.5273C36.0262 55.8876 35.589 55.5621 34.9171 55.5621H33.4402V59.3644H34.944C35.5466 59.3644 36.1383 59.0127 36.1383 58.2819ZM35.4878 56.5864C35.4878 56.9967 35.2104 57.1941 34.8211 57.1941H33.9627V56.0157H34.832C35.2213 56.0157 35.4878 56.1596 35.4878 56.5864ZM35.589 58.2662C35.589 58.703 35.2959 58.9168 34.8693 58.9168H33.9627V57.6367H34.8531C35.2797 57.6367 35.589 57.8341 35.589 58.2662ZM39.7808 59.3644L38.4048 55.5463H37.9143L36.5225 59.3644H37.0558L37.4022 58.3675H38.8849L39.2315 59.3644H39.7808ZM38.7356 57.9191H37.5517L38.1381 56.2129H38.1488L38.7356 57.9191ZM42.6923 59.3644V58.9006H40.842V55.5621H40.3142V59.3644H42.6923ZM26.8207 23.1394V23.1332C26.8223 23.0476 26.8644 22.9733 27.0574 22.8776C27.8968 22.4732 28.5867 22.0009 29.1095 21.4734C29.1924 21.3861 29.251 21.3561 29.2848 21.3603H29.2897C29.3234 21.3603 29.3772 21.4029 29.4405 21.5096C30.191 22.822 30.7623 24.2605 31.1471 25.7899V26.5793C31.1022 26.6599 31.0352 26.741 30.9428 26.8347C30.4328 27.3474 29.5362 28.0709 28.5763 28.6473C28.5746 28.6481 28.5715 28.6499 28.5672 28.6524C28.5193 28.6801 28.3204 28.7953 28.2563 28.7408C28.1768 28.6708 28.1496 28.3495 28.1496 28.3495C27.9378 26.6793 27.5106 25.0006 26.8806 23.3496C26.846 23.2646 26.8223 23.1944 26.8207 23.1394ZM27.2013 28.2689V29.2517C27.1456 29.3248 27.0543 29.3854 26.9113 29.4422C24.6753 30.31 22.4579 30.4594 21.5928 30.5063C21.4953 30.5125 21.4227 30.5001 21.3872 30.4594C21.3266 30.3988 21.3348 30.2514 21.3348 30.2514C21.3348 30.0215 21.3336 29.7492 21.3324 29.4749C21.3311 29.1964 21.3299 28.9158 21.3299 28.6754C21.3299 26.7998 21.3148 25.4063 21.3046 24.518C21.3015 24.3217 21.3905 24.1275 21.6672 24.1195C23.1021 24.0693 24.4577 23.8383 25.6889 23.4318H25.9705C25.9974 23.4702 26.028 23.535 26.0649 23.6438C26.5874 25.1756 26.9686 26.7272 27.2013 28.2689ZM20.3229 23.4158H20.31C19.0599 23.4158 17.2726 23.1189 16.3444 22.8121L16.2721 22.7597C16.2721 22.7597 16.2356 22.7075 16.312 22.5454V22.544C17.0866 20.6908 18.0462 19.0248 19.202 17.5344C19.6332 17.625 20.2416 17.7145 20.7582 17.7314V19.5966C20.7141 20.7499 20.6873 21.9015 20.6653 23.0245V23.0263C20.6642 23.1969 20.6291 23.2959 20.5774 23.345C20.5294 23.3889 20.4523 23.414 20.3229 23.4158ZM16.0744 23.3077H16.0709C16.0309 23.3097 16.0047 23.3243 15.9645 23.4276C14.8221 26.2943 14.5936 29.3878 14.5936 29.3878C14.5829 29.5346 14.6216 29.5616 14.7208 29.607C14.7208 29.607 17.1418 30.5302 20.2485 30.5302H20.2505C20.2528 30.5299 20.2581 30.5295 20.2657 30.5289C20.3165 30.5249 20.4701 30.5128 20.5174 30.468C20.5973 30.387 20.6063 30.3295 20.6063 30.0808C20.6116 28.5746 20.6393 24.6342 20.6409 24.5121V24.51C20.6409 24.2536 20.5137 24.1232 20.2871 24.1064C18.8425 24.0382 17.4314 23.7709 16.207 23.3408C16.1459 23.3201 16.1044 23.3097 16.0744 23.3077ZM30.5338 34.0611H30.5785C29.446 35.499 27.8044 36.8829 26.3642 37.6007C26.6466 37.2026 26.9006 36.7723 27.1198 36.3204C27.2224 36.1146 27.4149 35.8565 27.6334 35.7655C28.711 35.3034 29.6829 34.7299 30.5338 34.0611ZM33.3951 24.9599V27.3417C33.2268 28.8289 32.7612 30.1064 32.2156 31.0483C32.374 30.2589 32.4594 29.4258 32.4594 28.5733C32.4594 28.5733 32.4565 27.8392 32.3852 27.0097C32.3619 26.7578 32.4443 26.5043 32.6684 26.1361C33.0019 25.593 33.1988 25.0037 33.3187 24.4106C33.3489 24.5956 33.3744 24.7787 33.3951 24.9599ZM29.6392 18.3205V18.5554C29.6261 18.8667 29.563 19.176 29.4611 19.4378C29.4611 19.4378 29.4053 19.5999 29.339 19.6079C29.2439 19.6172 29.0852 19.4122 29.0852 19.4122C28.069 18.2394 26.8962 17.2771 25.5089 16.4761C25.788 16.1546 25.9374 15.8308 25.9374 15.5165C25.9374 15.3301 25.8838 15.1478 25.7806 14.9767C26.3326 15.1922 27.5217 15.7107 28.5734 16.5296C28.5734 16.5296 29.2652 17.0506 29.4835 17.5688C29.5777 17.7942 29.6277 18.0545 29.6392 18.3205ZM25.0312 15.3888V15.7547C24.7763 16.7475 22.2452 17.1627 20.9931 17.1627C20.9931 17.1627 17.8362 17.2402 16.7466 16.0576C16.7466 16.0576 16.7097 15.9938 16.654 16.0294C16.6075 16.0502 16.64 16.114 16.64 16.114C16.8903 16.6913 17.8875 17.2194 18.8651 17.4514C17.7063 18.8736 16.6771 20.5771 15.8935 22.3933C15.8102 22.5693 15.7734 22.5975 15.7176 22.5975C15.6897 22.5975 15.6527 22.5907 15.6059 22.5693C14.4428 22.1401 13.4274 21.5839 12.7459 20.9078H12.6718C12.6298 20.936 12.6669 20.9786 12.6669 20.9786C13.2698 21.774 14.2062 22.4916 15.4161 23.027C15.5273 23.0765 15.5504 23.1114 15.5553 23.1747C15.5553 23.1962 15.546 23.2309 15.5322 23.2732C14.7904 25.2024 14.2709 27.23 14.1504 29.152C14.149 29.1669 14.148 29.181 14.147 29.1943C14.1415 29.2685 14.1378 29.3177 14.0948 29.3416H14.0112C13.2422 29.0247 12.4999 28.6728 11.8555 28.2574H11.7863C11.7443 28.2998 11.7906 28.3422 11.7906 28.3422C12.4211 28.842 13.1212 29.3347 13.9141 29.7291C14.0392 29.7922 14.0948 29.877 14.0993 30.0175C14.0993 30.0175 14.0855 30.5458 14.0902 30.6371C14.0902 31.9325 14.2385 33.1576 14.5399 34.2697L14.5816 34.3117L14.6234 34.2556C14.6234 34.2556 14.3871 32.2212 14.5352 30.1441L14.5728 30.0529C14.5958 30.0389 14.614 30.046 14.6604 30.0671C16.3296 30.7638 18.2532 31.1793 20.2237 31.2708C20.5481 31.2988 20.5991 31.3549 20.6178 31.6931C20.6178 31.6931 20.6966 36.1847 20.6966 36.3959C20.6966 36.6211 20.4928 36.6142 20.4928 36.6142C18.6751 36.6066 16.7653 36.2833 16.7653 36.2833C16.7139 36.2689 16.6958 36.311 16.7328 36.3322C17.6645 36.8109 20.4928 37.0292 20.4928 37.0292C20.6917 37.0503 20.729 37.0995 20.7379 37.2615C20.7379 37.2615 20.8123 38.7045 20.8216 38.8171C14.3312 38.8171 8.70821 33.045 8.70821 26.4204C8.70821 21.0417 12.8204 14.2907 20.5156 14.0371H21.3268C23.557 14.1073 24.8549 14.5652 25.0312 15.3888ZM30.0308 20.4917V20.4814C30.0316 20.3924 30.0633 20.2754 30.1417 20.0948C30.3604 19.5975 30.4697 19.106 30.4697 18.6322C30.4697 18.501 30.4601 18.3735 30.441 18.2443C31.6045 19.5042 32.3895 20.866 32.7838 22.304V23.51C32.6882 23.9612 32.4925 24.5925 32.095 25.2839C31.382 22.4721 30.1354 20.7565 30.1354 20.7565C30.123 20.7318 30.1109 20.7094 30.0998 20.6886C30.0607 20.616 30.0319 20.5624 30.0308 20.4917ZM30.7716 32.8482C31.1726 32.4612 31.4788 31.8619 31.5443 31.2499C31.779 29.142 31.5039 27.7267 31.5039 27.7267C31.5001 27.6849 31.4633 27.7224 31.4633 27.7224C30.9153 28.2698 29.9076 29.017 28.7266 29.6185C28.3446 29.8159 28.3053 29.9553 28.3004 30.2844C28.3198 32.1863 28.0904 33.6556 27.6798 34.8917C27.6798 34.8917 27.6441 34.9792 27.7545 34.9252C27.7597 34.9226 27.7685 34.9182 27.7807 34.9122C28.0268 34.7902 29.6486 33.9864 30.7716 32.8482ZM26.6004 36.1721V36.4345C26.3757 36.9648 26.1019 37.4464 25.7902 37.8663C23.4131 38.8664 21.0927 38.8133 21.0927 38.8133L21.1842 37.2897C21.1985 37.0964 21.243 37.0521 21.4027 37.0434C22.554 37.0323 24.3495 36.8753 26.4119 36.2229C26.5054 36.1936 26.562 36.1792 26.6004 36.1721ZM21.5604 23.39H21.5524C21.4711 23.3883 21.3949 23.3681 21.3612 23.3359C21.3166 23.2952 21.2866 23.2095 21.2855 23.0541C21.2568 21.3292 21.2142 19.5386 21.1629 17.7363C21.518 17.7393 22.5021 17.6688 23.0052 17.5792C23.9326 18.8505 24.8263 20.4761 25.5524 22.2603C25.5524 22.2603 25.6283 22.4322 25.5988 22.5147C25.565 22.5991 25.5044 22.6244 25.4087 22.6597C24.4377 23.0239 22.7459 23.39 21.5604 23.39ZM24.993 16.8893H25.1665C26.4268 17.7063 27.5892 18.8048 28.5705 20.1624C28.6692 20.3012 28.7152 20.4108 28.7166 20.5083V20.5174C28.7152 20.6074 28.6786 20.691 28.5842 20.7859C28.1374 21.2318 27.4536 21.7107 26.7117 22.1066C26.6311 22.1503 26.5225 22.1994 26.4526 22.1734C26.398 22.1584 26.3444 22.0653 26.2682 21.8994C25.502 20.2461 24.5725 18.7593 23.5029 17.4687C24.0771 17.3286 24.6213 17.1167 24.993 16.8893ZM27.1418 30.2975H27.3332C27.3385 30.2991 27.3423 30.3009 27.3456 30.3046C27.4493 30.3708 27.4443 30.6683 27.4443 30.6683C27.4443 30.6683 27.5517 33.0698 27.1076 34.864C27.0394 35.1393 26.9981 35.283 26.7563 35.3849C25.1145 36.0566 23.3308 36.4614 21.4471 36.5811C21.4471 36.5811 21.3037 36.5904 21.2573 36.5435C21.2049 36.4898 21.2198 36.3448 21.2198 36.3448C21.2624 34.9159 21.3004 33.3436 21.3161 31.6745C21.3172 31.6555 21.3181 31.6375 21.319 31.6203C21.3312 31.3822 21.335 31.3074 21.6727 31.2858C23.5673 31.2283 25.3687 30.9206 27.0161 30.3351C27.0161 30.3351 27.0737 30.312 27.1418 30.2975Z" fill="white"/>
</svg>
