<svg width="32" height="33" viewBox="0 0 32 33" fill="none" xmlns="http://www.w3.org/2000/svg">
<g clip-path="url(#clip0_803_570)">
<path d="M16 0.97522C24.836 0.97522 32 8.13922 32 16.9752C32 25.8112 24.836 32.9752 16 32.9752C7.164 32.9752 0 25.8112 0 16.9752C0 8.13922 7.164 0.97522 16 0.97522ZM11.9347 13.5139H8.22V24.3086H11.9333V13.5139H11.9347ZM21.056 13.2579C19.2907 13.2579 18.3987 14.0966 17.876 14.7992L17.7067 15.0406V13.5126H13.992L14.0053 14.1579C14.0133 15.0059 14.0147 16.4886 14.012 18.0646L13.992 24.3086H17.7067V18.2792C17.7067 17.9566 17.7307 17.6339 17.8293 17.4032C18.0987 16.7592 18.7093 16.0912 19.736 16.0912C21.0093 16.0912 21.5587 16.9792 21.6133 18.3072L21.6173 18.5312V24.3086H25.3333V18.1179C25.3333 14.8019 23.5 13.2579 21.056 13.2579ZM10.1013 8.30855C8.83067 8.30855 8 9.11522 8 10.1739C8 11.1472 8.71467 11.9406 9.83733 12.0299L10.0773 12.0379C11.372 12.0379 12.18 11.2099 12.18 10.1739C12.1547 9.11522 11.3733 8.30855 10.1013 8.30855Z" fill="white"/>
</g>
<defs>
<clipPath id="clip0_803_570">
<rect width="32" height="32" fill="white" transform="translate(0 0.97522)"/>
</clipPath>
</defs>
</svg>
