<svg width="36" height="65" viewBox="0 0 36 65" fill="none" xmlns="http://www.w3.org/2000/svg">
<path fill-rule="evenodd" clip-rule="evenodd" d="M22.0393 30.8569V30.9807C22.0393 32.568 22.9399 33.2435 24.8536 33.5024C26.1258 33.671 26.4521 34.0201 26.4521 34.6505V34.7068C26.4521 35.2923 26.0357 35.7424 25.1912 35.7424H25.09C24.2458 35.7424 23.7953 35.2809 23.7953 34.1777H21.9718V34.2791C21.9718 36.3955 23.0638 37.3185 25.1349 37.3185C27.1951 37.3185 28.3096 36.3391 28.3096 34.6505V34.5381C28.3096 32.9058 27.3414 32.2527 25.4278 31.9938C24.1444 31.825 23.8855 31.4874 23.8855 30.8455V30.7894C23.8855 30.2265 24.3131 29.8213 25.045 29.8213H25.1464C26.0694 29.8213 26.4184 30.3502 26.4184 31.4985H28.242V31.2621C28.242 29.2021 27.2963 28.2451 25.1349 28.2451C23.1312 28.2451 22.0393 29.2696 22.0393 30.8569ZM7.55078 33.007V32.5567C7.55078 29.5172 8.6203 28.2453 10.8942 28.2453C13.1794 28.2453 14.2487 29.5172 14.2487 32.5567V33.007C14.2487 36.0464 13.1794 37.3185 10.8942 37.3185C8.6203 37.3185 7.55078 36.0464 7.55078 33.007ZM10.9505 35.7425C12.0763 35.7425 12.3914 34.7632 12.3914 33.007V32.5567C12.3914 30.8005 12.0763 29.8211 10.9505 29.8211H10.849C9.72335 29.8211 9.39708 30.8005 9.39708 32.5567V33.007C9.39708 34.7632 9.72335 35.7425 10.849 35.7425H10.9505ZM17.7274 37.1721H15.0369V28.3916H17.7274C20.3391 28.3916 21.4311 29.5172 21.4311 32.5567V33.007C21.4311 36.0464 20.3391 37.1721 17.7274 37.1721ZM17.626 35.5961C19.146 35.5961 19.5737 34.7631 19.5737 33.007V32.5567C19.5737 30.8005 19.146 29.9676 17.626 29.9676H16.8608V35.5961H17.626Z" fill="white"/>
<path d="M0.846733 35.504C0.873604 34.2714 1.89475 33.294 3.12741 33.321C4.36001 33.3479 5.33748 34.3691 5.31044 35.6016C5.28357 36.8343 4.26242 37.8117 3.02976 37.7847C1.79716 37.7579 0.819862 36.7367 0.846733 35.504Z" fill="white"/>
<path d="M11.1454 18.105C11.1454 16.872 12.1449 15.8724 13.3777 15.8724C14.6107 15.8724 15.6103 16.872 15.6103 18.105C15.6103 19.3377 14.6107 20.3373 13.3777 20.3373C12.1449 20.3373 11.1454 19.3377 11.1454 18.105Z" fill="white"/>
<path d="M29.7389 27.1685C29.7389 25.9356 30.7384 24.936 31.9714 24.936C33.2043 24.936 34.2038 25.9356 34.2038 27.1685C34.2038 28.4013 33.2043 29.4009 31.9714 29.4009C30.7384 29.4009 29.7389 28.4013 29.7389 27.1685Z" fill="white"/>
<path d="M21.9135 46.6578C21.9135 45.4248 22.9131 44.4254 24.1459 44.4254C25.3788 44.4254 26.3784 45.4248 26.3784 46.6578C26.3784 47.8907 25.3788 48.8903 24.1459 48.8903C22.9131 48.8903 21.9135 47.8907 21.9135 46.6578Z" fill="white"/>
<path d="M2.55377 40.4009C2.55377 39.1679 3.5533 38.1683 4.78625 38.1683C6.01925 38.1683 7.01862 39.1679 7.01862 40.4009C7.01862 41.6336 6.01925 42.6332 4.78625 42.6332C3.5533 42.6332 2.55377 41.6336 2.55377 40.4009Z" fill="white"/>
<path d="M26.715 22.3493C26.715 21.1163 27.7146 20.1168 28.9476 20.1168C30.1803 20.1168 31.1799 21.1163 31.1799 22.3493C31.1799 23.5821 30.1803 24.5817 28.9476 24.5817C27.7146 24.5817 26.715 23.5821 26.715 22.3493Z" fill="white"/>
<path d="M26.3782 43.5521C26.3782 42.3191 27.3777 41.3196 28.6107 41.3196C29.8435 41.3196 30.843 42.3191 30.843 43.5521C30.843 44.7849 29.8435 45.7844 28.6107 45.7844C27.3777 45.7844 26.3782 44.7849 26.3782 43.5521Z" fill="white"/>
<path d="M6.27423 44.4254C6.27423 43.1925 7.27377 42.1929 8.5066 42.1929C9.73955 42.1929 10.7391 43.1925 10.7391 44.4254C10.7391 45.6584 9.73955 46.658 8.5066 46.658C7.27377 46.658 6.27423 45.6584 6.27423 44.4254Z" fill="white"/>
<path d="M2.55377 24.7588C2.55377 23.5258 3.5533 22.5263 4.78625 22.5263C6.01925 22.5263 7.01862 23.5258 7.01862 24.7588C7.01862 25.9918 6.01925 26.9913 4.78625 26.9913C3.5533 26.9913 2.55377 25.9918 2.55377 24.7588Z" fill="white"/>
<path d="M21.9135 19.0624C21.9135 17.8296 22.9131 16.8301 24.1459 16.8301C25.3788 16.8301 26.3784 17.8296 26.3784 19.0624C26.3784 20.2954 25.3788 21.2949 24.1459 21.2949C22.9131 21.2949 21.9135 20.2954 21.9135 19.0624Z" fill="white"/>
<path d="M16.5095 48.0168C16.5095 46.7838 17.5091 45.7843 18.742 45.7843C19.975 45.7843 20.9744 46.7838 20.9744 48.0168C20.9744 49.2498 19.975 50.2491 18.742 50.2491C17.5091 50.2491 16.5095 49.2498 16.5095 48.0168Z" fill="white"/>
<path d="M30.8428 32.8854C30.8428 31.6524 31.8424 30.6529 33.0754 30.6529C34.3082 30.6529 35.3077 31.6524 35.3077 32.8854C35.3077 34.1184 34.3082 35.1179 33.0754 35.1179C31.8424 35.1179 30.8428 34.1184 30.8428 32.8854Z" fill="white"/>
<path d="M16.5095 17.3614C16.5095 16.1286 17.5091 15.1291 18.742 15.1291C19.975 15.1291 20.9744 16.1286 20.9744 17.3614C20.9744 18.5943 19.975 19.5939 18.742 19.5939C17.5091 19.5939 16.5095 18.5943 16.5095 17.3614Z" fill="white"/>
<path d="M0.846252 29.9722C0.846252 28.7393 1.84568 27.7397 3.07862 27.7397C4.31157 27.7397 5.31112 28.7393 5.31112 29.9722C5.31112 31.2052 4.31157 32.2047 3.07862 32.2047C1.84568 32.2047 0.846252 31.2052 0.846252 29.9722Z" fill="white"/>
<path d="M11.1458 47.1149C11.1728 45.8823 12.1938 44.9048 13.4265 44.9319C14.6591 44.9587 15.6365 45.9799 15.6096 47.2125C15.5827 48.4451 14.5616 49.4226 13.329 49.3956C12.0962 49.3687 11.119 48.3475 11.1458 47.1149Z" fill="white"/>
<path d="M29.4025 38.5615C29.4296 37.3288 30.4507 36.3514 31.6834 36.3784C32.916 36.4054 33.8933 37.4264 33.8664 38.6591C33.8394 39.8917 32.8184 40.8691 31.5857 40.8421C30.3531 40.8152 29.3756 39.7941 29.4025 38.5615Z" fill="white"/>
<path d="M6.27477 20.7204C6.30159 19.4878 7.3228 18.5103 8.55539 18.5372C9.78805 18.5642 10.7655 19.5854 10.7385 20.818C10.7116 22.0506 9.69046 23.0279 8.4578 23.001C7.22514 22.974 6.2479 21.953 6.27477 20.7204Z" fill="white"/>
</svg>
