<svg width="32" height="33" viewBox="0 0 32 33" fill="none" xmlns="http://www.w3.org/2000/svg">
<path d="M16 0.97522C24.836 0.97522 32 8.13922 32 16.9752C32 25.8112 24.836 32.9752 16 32.9752C7.164 32.9752 0 25.8112 0 16.9752C0 8.13922 7.164 0.97522 16 0.97522ZM16.392 10.3086H15.6067L14.1387 10.3259C12.1653 10.3579 9.19333 10.4486 8.18533 10.7059C7.76904 10.8073 7.38665 11.0162 7.0764 11.3117C6.76614 11.6072 6.53888 11.979 6.41733 12.3899C6.176 13.2486 6.07333 14.6432 6.03067 15.6699L6.00133 16.7566V17.1939L6.012 17.7619C6.04133 18.7806 6.132 20.5459 6.41733 21.5606C6.64667 22.3792 7.324 23.0246 8.18533 23.2446C9.16667 23.4952 12.008 23.5872 13.98 23.6219L15.8533 23.6419L17.3987 23.6312C19.336 23.6059 22.7227 23.5219 23.8133 23.2446C24.2299 23.1433 24.6125 22.9345 24.923 22.639C25.2335 22.3435 25.461 21.9716 25.5827 21.5606C25.8627 20.5606 25.956 18.8299 25.9853 17.8046L25.9987 17.1006L25.9947 16.5632C25.9787 15.6699 25.9067 13.5432 25.5813 12.3899C25.4598 11.979 25.2325 11.6072 24.9223 11.3117C24.612 11.0162 24.2296 10.8073 23.8133 10.7059C22.932 10.4806 20.5467 10.3832 18.6427 10.3406L16.392 10.3086ZM13.9547 14.1619L19.1813 16.9752L13.9547 19.7886V14.1619Z" fill="white"/>
</svg>
